<svg xmlns="http://www.w3.org/2000/svg" viewBox="0 0 512 512" role="img" aria-label="TRACELINE logo">
  <defs>
    <linearGradient id="blueCyan" x1="0%" y1="0%" x2="100%" y2="100%">
      <stop offset="0%" stop-color="#155EEF"/>
      <stop offset="55%" stop-color="#1599F2"/>
      <stop offset="100%" stop-color="#12DCC8"/>
    </linearGradient>
    <linearGradient id="orbit" x1="0%" y1="100%" x2="100%" y2="0%">
      <stop offset="0%" stop-color="#155EEF"/>
      <stop offset="100%" stop-color="#12DCC8"/>
    </linearGradient>
  </defs>
  <g fill="url(#blueCyan)">
    <path d="M88 116 L390 116 L352 170 L50 170 Z"/>
    <path d="M183 182 H256 V348 L183 410 Z"/>
  </g>
  <path d="M183 182 H256 V348 L183 410 Z" fill="url(#blueCyan)" opacity=".96"/>
  <path d="M112 306 C205 311 302 255 394 170" fill="none" stroke="url(#orbit)" stroke-width="18" stroke-linecap="round"/>
  <path d="M112 306 C98 300 93 286 102 273 C111 260 126 249 142 239" fill="none" stroke="#155EEF" stroke-width="13" stroke-linecap="round"/>
  <circle cx="110" cy="306" r="21" fill="url(#blueCyan)"/>
  <circle cx="306" cy="235" r="17" fill="url(#blueCyan)"/>
  <circle cx="404" cy="150" r="25" fill="#12DCC8"/>
  <circle cx="404" cy="150" r="43" fill="none" stroke="#12DCC8" stroke-width="10"/>
  <circle cx="404" cy="150" r="58" fill="none" stroke="#12DCC8" stroke-width="7" opacity=".9"/>
</svg>